# Blender 4.1.1
# www.blender.org
mtllib mcl_clover_3leaf_large.mtl
o Plane
v 0.000000 2.200000 -0.000000
v 0.000000 2.200000 -0.000000
v -2.500000 2.200000 -2.500000
v 2.500000 2.200000 -2.500000
v 0.353550 0.000000 0.353550
v 0.353550 2.000000 0.353550
v -0.353550 -0.000000 -0.353550
v -0.353550 2.000000 -0.353550
v 0.353550 -0.000000 -0.353550
v 0.353550 2.000000 -0.353550
v -0.353550 0.000000 0.353550
v -0.353550 2.000000 0.353550
v -0.915060 2.200000 3.415060
v -3.415060 2.200000 -0.915060
v 0.000000 2.200000 -0.000000
v 3.415060 2.200000 -0.915060
v 0.915060 2.200000 3.415060
v 0.353550 2.000000 0.353550
v -0.353550 2.000000 -0.353550
v 0.353550 2.000000 -0.353550
v -0.353550 2.000000 0.353550
v 0.353550 2.000000 0.353550
v -0.353550 2.000000 -0.353550
v 0.353550 2.000000 -0.353550
v -0.353550 2.000000 0.353550
v 0.353550 2.200000 0.353550
v -0.353550 2.200000 -0.353550
v 0.353550 2.200000 -0.353550
v -0.353550 2.200000 0.353550
vn -0.0000 1.0000 -0.0000
vn -0.7071 -0.0000 0.7071
vn 0.7071 -0.0000 0.7071
vn -0.0000 -0.0000 1.0000
vt 0.500000 0.437500
vt 1.000000 0.937500
vt 0.000000 0.937500
vt 0.437500 0.062500
vt 0.562500 0.062500
vt 0.562500 0.437500
vt 0.437500 0.437500
s 0
usemtl Material.001
f 2/1/1 4/2/1 3/3/1
f 5/4/2 6/5/2 8/6/2 7/7/2
f 9/4/3 10/5/3 12/6/3 11/7/3
f 1/1/1 14/2/1 13/3/1
f 15/1/1 17/2/1 16/3/1
f 8/6/4 6/5/4 18/5/4 19/6/4
f 12/6/4 10/5/4 20/5/4 21/6/4
f 19/6/4 18/5/4 22/5/4 23/6/4
f 21/6/4 20/5/4 24/5/4 25/6/4
f 23/6/2 22/5/2 26/5/2 27/6/2
f 25/6/3 24/5/3 28/5/3 29/6/3
