v -.5 -.402174 .404349
v -.5 .495904 .404349
v -.5 .495904 -.105763
v -.5 -.402174 -.105763
v .5 -.402174 -.105763
v .5 .495904 -.105763
v .5 .495904 .404349
v .5 -.402174 .404349
v -.375167 .371071 -.061323
v .375167 .371071 -.061323
v .375167 -.277341 -.061323
v -.375167 -.277341 -.061323
v -.387 -.300692 .0356
v .387 -.300692 .0356
v .387 -.300692 .5
v -.387 -.300692 .5
v -.387 .394421 .5
v .387 .394421 .5
v .387 .394421 .0356
v -.387 .394421 .0356
v -.249 -.5 -.149131
v .249 -.5 -.149131
v .249 -.5 .477563
v -.249 -.5 .477563
v -.249 -.4 .477563
v .249 -.4 .477563
v .249 -.4 -.149131
v -.249 -.4 -.149131
v -.5 -.5 -.486459
v .5 -.5 -.486459
v .5 -.5 -.186459
v -.5 -.5 -.186459
v -.5 -.4 -.186459
v -.333333 -.4 -.186459
v -.166667 -.4 -.186459
v 0 -.4 -.186459
v .166667 -.4 -.186459
v .333333 -.4 -.186459
v .5 -.4 -.186459
v .5 -.4 -.336459
v .5 -.4 -.486459
v .333333 -.4 -.486459
v .166667 -.4 -.486459
v 0 -.4 -.486459
v -.166667 -.4 -.486459
v -.333333 -.4 -.486459
v -.5 -.4 -.486459
v -.5 -.4 -.336459
vt .15752 .465721
vt .15752 .743043
vt 0 .743043
vt 0 .465721
vt .31504 .465721
vt .31504 .743043
vt .15752 .743043
vt .15752 .465721
vt .231699 .943269
vt 0 .943269
vt 0 .743043
vt .231699 .743043
vt .856596 .716102
vt .617589 .716102
vt .617589 .572698
vt .856596 .572698
vt .617589 0
vt .856596 0
vt .856596 .143404
vt .617589 .143404
vt .539258 .936562
vt .385479 .936562
vt .385479 .743043
vt .539258 .743043
vt .231699 .743043
vt .385479 .743043
vt .385479 .936562
vt .231699 .936562
vt .617589 .250158
vt .308794 .250158
vt .308794 .15752
vt .617589 .15752
vt .308794 .250158
vt .36026 .250158
vt .411726 .250158
vt .463192 .250158
vt .514657 .250158
vt .566123 .250158
vt .617589 .250158
vt .617589 .296477
vt .617589 .342797
vt .566123 .342797
vt .514657 .342797
vt .463192 .342797
vt .411726 .342797
vt .36026 .342797
vt .308794 .342797
vt .308794 .296477
vt .308794 .465721
vt 0 .465721
vt 0 .308201
vt .308794 .308201
vt .308794 0
vt .617589 0
vt .617589 .15752
vt .308794 .15752
vt .355958 .743043
vt .31504 .704495
vt .31504 .504269
vt .355958 .465721
vt .355958 .465721
vt .396875 .504269
vt .396875 .704495
vt .355958 .743043
vt .617589 .143404
vt .856596 .143404
vt .856596 .358051
vt .617589 .358051
vt .856596 .572698
vt .617589 .572698
vt .617589 .358051
vt .856596 .358051
vt .693038 .743043
vt .846818 .743043
vt .846818 .773922
vt .693038 .773922
vt .693038 .773922
vt .539258 .773922
vt .539258 .743043
vt .693038 .743043
vt .308794 .424632
vt .617589 .424632
vt .617589 .455511
vt .566123 .455511
vt .514657 .455511
vt .463192 .455511
vt .411726 .455511
vt .36026 .455511
vt .308794 .455511
vt .308794 .308201
vt .257329 .308201
vt .205863 .308201
vt .154397 .308201
vt .102931 .308201
vt .051466 .308201
vt 0 .308201
vt 0 .277322
vt .308794 .277322
vt 0 0
vt .308794 0
vt .308794 .277322
vt 0 .277322
vt .617589 .342797
vt .579041 .383714
vt .347342 .383714
vt .308794 .342797
vt .308794 .424632
vt .347342 .383714
vt .579041 .383714
vt .617589 .424632
vt .540279 .465721
vt .540279 .680368
vt .396875 .680368
vt .396875 .465721
vt 1. 0
vt 1. .214647
vt .856596 .214647
vt .856596 0
vt .590395 .680368
vt .590395 .711248
vt .396875 .711248
vt .396875 .680368
vt .590395 .711248
vt .590395 .742127
vt .396875 .742127
vt .396875 .711248
vt .785676 .773922
vt .785676 .804802
vt .739357 .804802
vt .693038 .804802
vt .693038 .773922
vt .785676 .804802
vt .785676 .835681
vt .739357 .835681
vt .693038 .835681
vt .693038 .804802
vn -1. 0 0
vn 1. 0 0
vn 0 0 -1.
vn 0 -1. 0
vn 0 1. 0
vn .3354 0 -.9421
vn -.3354 0 -.9421
vn 0 0 1.
vn 0 .3354 -.9421
vn 0 -.3354 -.9421
s 1.
f 1/1/1 2/2/1 3/3/1 4/4/1
f 5/5/2 6/6/2 7/7/2 8/8/2
f 9/9/3 10/10/3 11/11/3 12/12/3
f 13/13/4 14/14/4 15/15/4 16/16/4
f 17/17/5 18/18/5 19/19/5 20/20/5
f 21/21/4 22/22/4 23/23/4 24/24/4
f 25/25/5 26/26/5 27/27/5 28/28/5
f 29/29/4 30/30/4 31/31/4 32/32/4
f 33/33/5 34/34/5 35/35/5 36/36/5 37/37/5 38/38/5 39/39/5 40/40/5 41/41/5 42/42/5 43/43/5 44/44/5 45/45/5 46/46/5 47/47/5 48/48/5
f 4/49/4 5/50/4 8/51/4 1/52/4
f 2/53/5 7/54/5 6/55/5 3/56/5
f 3/57/6 9/58/6 12/59/6 4/60/6
f 5/61/7 11/62/7 10/63/7 6/64/7
f 16/65/8 15/66/8 18/67/8 17/68/8
f 20/69/3 19/70/3 14/71/3 13/72/3
f 24/73/8 23/74/8 26/75/8 25/76/8
f 28/77/3 27/78/3 22/79/3 21/80/3
f 32/81/8 31/82/8 39/83/8 38/84/8 37/85/8 36/86/8 35/87/8 34/88/8 33/89/8
f 47/90/3 46/91/3 45/92/3 44/93/3 43/94/3 42/95/3 41/96/3 30/97/3 29/98/3
f 1/99/8 8/100/8 7/101/8 2/102/8
f 4/103/9 12/104/9 11/105/9 5/106/9
f 6/107/10 10/108/10 9/109/10 3/110/10
f 16/111/1 17/112/1 20/113/1 13/114/1
f 14/115/2 19/116/2 18/117/2 15/118/2
f 24/119/1 25/120/1 28/121/1 21/122/1
f 22/123/2 27/124/2 26/125/2 23/126/2
f 32/127/1 33/128/1 48/129/1 47/130/1 29/131/1
f 30/132/2 41/133/2 40/134/2 39/135/2 31/136/2
