# Exported from Figuro at https://www.figuro.io

mtllib newscene.mtl
o sphere17
v 80.43194470536204 320.68322057138226 -132.38785302241808
v 224.4276823615587 122.49009063648855 -132.38785302241808
v -36.06305417605206 122.49009063648855 226.14688719816297
v -80.56018422937358 320.68322057138226 89.19880258152108
v -457.54591964839886 122.49009063648855 89.19880258152108
v -341.0509207669734 320.68322057138226 4.560231594235063
v -457.54591964839886 122.49009063648855 -353.9745086263573
v -341.0509207669847 320.68322057138226 -269.3359376390712
v -36.06305417605206 122.49009063648855 -490.92259324299914
v -80.56018422937358 320.68322057138226 -353.9745086263573
v 224.4276823615587 -122.49009063648845 -132.38785302241808
v -36.06305417605206 -122.49009063648845 226.14688719816297
v -457.54591964839886 -122.49009063648845 89.19880258152108
v -457.54591964839886 -122.49009063648845 -353.9745086263573
v -36.06305417605206 -122.49009063648845 -490.92259324299914
v 80.43194470536204 -320.68322057138204 -132.38785302241808
v -80.56018422937358 -320.68322057138204 89.19880258152108
v -341.0509207669734 -320.68322057138204 4.560231594235063
v -341.0509207669847 -320.68322057138204 -269.3359376390712
v -80.56018422937358 -320.68322057138204 -353.9745086263573
v -152.5580530574664 396.3862598697873 -132.38785302241808
v -152.5580530574664 -396.3862598697873 -132.38785302241808
# 22 vertices
vt 0.5171400508688206 2.2526688303569617
vt 0.5171400508688206 1.4784769165487834
vt -0.8833862781178241 1.4784769165487834
vt -0.3484328225840667 2.2526688303569617
vt -0.31468821964599053 2.2526688303569617
vt -0.14087130537520337 1.4784769165487834
vt -1.787288748626558 1.4784769165487834
vt -1.3322301592459898 2.2526688303569617
vt 0.017813404664980714 2.2526688303569617
vt 0.3484328225840667 1.4784769165487834
vt -1.3827129243217082 1.4784769165487834
vt -1.0520935064026218 2.2526688303569617
vt 1.332230159246034 2.2526688303569617
vt 1.787288748626558 1.4784769165487834
vt 0.14087130537520337 1.4784769165487834
vt 0.31468821964599053 2.2526688303569617
vt 1.3827129243217082 2.2526688303569617
vt 1.9176663798554654 1.4784769165487834
vt 0.5171400508688206 1.4784769165487834
vt 0.5171400508688206 2.2526688303569617
vt 0.5171400508688206 1.4784769165487834
vt 0.5171400508688206 0.521523083451217
vt -0.8833862781178241 0.521523083451217
vt -0.8833862781178241 1.4784769165487834
vt -0.14087130537520337 1.4784769165487834
vt -0.14087130537520337 0.521523083451217
vt -1.787288748626558 0.521523083451217
vt -1.787288748626558 1.4784769165487834
vt 0.3484328225840667 1.4784769165487834
vt 0.3484328225840667 0.521523083451217
vt -1.3827129243217082 0.521523083451217
vt -1.3827129243217082 1.4784769165487834
vt 1.787288748626558 1.4784769165487834
vt 1.787288748626558 0.521523083451217
vt 0.14087130537520337 0.521523083451217
vt 0.14087130537520337 1.4784769165487834
vt 1.9176663798554654 1.4784769165487834
vt 1.9176663798554654 0.521523083451217
vt 0.5171400508688206 0.521523083451217
vt 0.5171400508688206 1.4784769165487834
vt 0.5171400508688206 0.521523083451217
vt 0.5171400508688206 -0.2526688303569611
vt -0.3484328225840667 -0.2526688303569611
vt -0.8833862781178241 0.521523083451217
vt -0.14087130537520337 0.521523083451217
vt -0.31468821964599053 -0.2526688303569611
vt -1.3322301592459898 -0.2526688303569611
vt -1.787288748626558 0.521523083451217
vt 0.3484328225840667 0.521523083451217
vt 0.017813404664980714 -0.2526688303569611
vt -1.0520935064026218 -0.2526688303569611
vt -1.3827129243217082 0.521523083451217
vt 1.787288748626558 0.521523083451217
vt 1.332230159246034 -0.2526688303569611
vt 0.31468821964599053 -0.2526688303569611
vt 0.14087130537520337 0.521523083451217
vt 1.9176663798554654 0.521523083451217
vt 1.3827129243217082 -0.2526688303569611
vt 0.5171400508688206 -0.2526688303569611
vt 0.5171400508688206 0.521523083451217
vt 0.3141872840053205 1.5171400508688206
vt -0.31468821964599053 0.6515671774159333
vt -0.5959298947557281 1.5171400508688206
vt -0.31468821964599053 0.6515671774159333
vt -1.3322301592459898 0.9821865953350193
vt -0.5959298947557281 1.5171400508688206
vt -1.3322301592459898 0.9821865953350193
vt -1.332230159246034 2.052093506402622
vt -0.5959298947557281 1.5171400508688206
vt -1.332230159246034 2.052093506402622
vt -0.31468821964599053 2.3827129243217082
vt -0.5959298947557281 1.5171400508688206
vt -0.31468821964599053 2.3827129243217082
vt 0.3141872840053205 1.5171400508688206
vt -0.5959298947557281 1.5171400508688206
vt 0.3141872840053205 0.48285994913117936
vt -0.5959298947557281 0.48285994913117936
vt -0.31468821964599053 1.3484328225840667
vt -0.31468821964599053 1.3484328225840667
vt -0.5959298947557281 0.48285994913117936
vt -1.3322301592459898 1.0178134046649807
vt -1.3322301592459898 1.0178134046649807
vt -0.5959298947557281 0.48285994913117936
vt -1.332230159246034 -0.05209350640262178
vt -1.332230159246034 -0.05209350640262178
vt -0.5959298947557281 0.48285994913117936
vt -0.31468821964599053 -0.3827129243217082
vt -0.31468821964599053 -0.3827129243217082
vt -0.5959298947557281 0.48285994913117936
vt 0.3141872840053205 0.48285994913117936
# 90 uvs
vn 0.4994839534554115 0.7173441777249716 -8.326672684688674e-17
vn 0.7532367783539987 0.2533659269856932 0
vn 0.23276296529962567 0.2533659269856913 0.7163707463667458
vn 0.15434903003530837 0.7173441777249706 0.475037468718632
vn -0.6093813544766159 0.2533659269856941 0.4427414698007825
vn -0.40409100676300913 0.7173441777249737 0.2935893015978369
vn -0.6093813544766152 0.2533659269856927 -0.44274146980077683
vn -0.4040910067630072 0.7173441777249727 -0.29358930159782304
vn 0.2327629652996264 0.25336592698568994 -0.7163707463667469
vn 0.15434903003531036 0.7173441777249696 -0.47503746871863284
vn 0.7532367783539986 -0.2533659269856934 5.551115123125783e-17
vn 0.23276296529962567 -0.2533659269856915 0.7163707463667458
vn -0.6093813544766159 -0.25336592698569416 0.44274146980078244
vn -0.6093813544766152 -0.2533659269856927 -0.44274146980077683
vn 0.23276296529962637 -0.25336592698569005 -0.7163707463667468
vn 0.49948395345541186 -0.7173441777249716 1.0408340855860843e-16
vn 0.15434903003530842 -0.7173441777249705 0.47503746871863234
vn -0.4040910067630095 -0.7173441777249736 0.29358930159783697
vn -0.4040910067630074 -0.7173441777249725 -0.29358930159782337
vn 0.15434903003531053 -0.7173441777249695 -0.475037468718633
vn 2.3064883336587626e-15 0.9279565014785589 3.397282455352979e-15
vn 2.325917236589703e-15 -0.9279565014785585 3.397282455352979e-15
# 22 normals
usemtl f9cb9c
f 4/4/4 3/3/3 2/2/2 1/1/1 
f 6/8/6 5/7/5 3/6/3 4/5/4 
f 8/12/8 7/11/7 5/10/5 6/9/6 
f 10/16/10 9/15/9 7/14/7 8/13/8 
f 1/20/1 2/19/2 9/18/9 10/17/10 
f 3/24/3 12/23/12 11/22/11 2/21/2 
f 5/28/5 13/27/13 12/26/12 3/25/3 
f 7/32/7 14/31/14 13/30/13 5/29/5 
f 9/36/9 15/35/15 14/34/14 7/33/7 
f 2/40/2 11/39/11 15/38/15 9/37/9 
f 12/44/12 17/43/17 16/42/16 11/41/11 
f 13/48/13 18/47/18 17/46/17 12/45/12 
f 14/52/14 19/51/19 18/50/18 13/49/13 
f 15/56/15 20/55/20 19/54/19 14/53/14 
f 11/60/11 16/59/16 20/58/20 15/57/15 
f 21/63/21 4/62/4 1/61/1 
f 21/66/21 6/65/6 4/64/4 
f 21/69/21 8/68/8 6/67/6 
f 21/72/21 10/71/10 8/70/8 
f 21/75/21 1/74/1 10/73/10 
f 17/78/17 22/77/22 16/76/16 
f 18/81/18 22/80/22 17/79/17 
f 19/84/19 22/83/22 18/82/18 
f 20/87/20 22/86/22 19/85/19 
f 16/90/16 22/89/22 20/88/20 
# 25 polygons
o sphere18
v 799.7344756488108 772.5305278667903 -1107.9128077232372
v 1146.6222954228033 295.0804042982161 -1107.9128077232372
v 519.0963343099895 295.0804042982161 -244.19742022133005
v 411.902102858151 772.5305278667903 -574.107341640642
v -496.26199959348725 295.0804042982161 -574.107341640642
v -215.62385825463775 772.5305278667903 -778.002886303703
v -496.26199959348725 295.0804042982161 -1641.7182738058316
v -215.62385825466566 772.5305278667903 -1437.822729142771
v 519.0963343099895 295.0804042982161 -1971.6281952251443
v 411.902102858151 772.5305278667903 -1641.7182738058316
v 1146.6222954228033 -295.0804042982161 -1107.9128077232372
v 519.0963343099895 -295.0804042982161 -244.19742022133005
v -496.26199959348725 -295.0804042982161 -574.107341640642
v -496.26199959348725 -295.0804042982161 -1641.7182738058316
v 519.0963343099895 -295.0804042982161 -1971.6281952251443
v 799.7344756488108 -772.53052786679 -1107.9128077232372
v 411.902102858151 -772.53052786679 -574.107341640642
v -215.62385825463775 -772.53052786679 -778.002886303703
v -215.62385825466566 -772.53052786679 -1437.822729142771
v 411.902102858151 -772.53052786679 -1641.7182738058316
v 238.4581929711673 954.9002471371485 -1107.9128077232372
v 238.4581929711673 -954.9002471371485 -1107.9128077232372
# 22 vertices
vt 4.327784405168895 4.017697374479649
vt 4.327784405168895 2.1526578292899066
vt 0.9538961727395705 2.1526578292899066
vt 2.2426068032837576 4.017697374479649
vt 1.6089925892896524 4.017697374479649
vt 2.0277200558983965 2.1526578292899066
vt -1.9385234359120596 2.1526578292899066
vt -0.8422806963071787 4.017697374479649
vt -3.03907377462384 4.017697374479649
vt -2.2426068032837576 2.1526578292899066
vt -6.41296200705403 2.1526578292899066
vt -5.61649503571395 4.017697374479649
vt 0.8422806963072877 4.017697374479649
vt 1.9385234359120596 2.1526578292899066
vt -2.0277200558983965 2.1526578292899066
vt -1.6089925892896524 4.017697374479649
vt 6.41296200705403 4.017697374479649
vt 7.70167263759822 2.1526578292899066
vt 4.327784405168895 2.1526578292899066
vt 4.327784405168895 4.017697374479649
vt 4.327784405168895 2.1526578292899066
vt 4.327784405168895 -0.15265782928990657
vt 0.9538961727395705 -0.15265782928990657
vt 0.9538961727395705 2.1526578292899066
vt 2.0277200558983965 2.1526578292899066
vt 2.0277200558983965 -0.15265782928990657
vt -1.9385234359120596 -0.15265782928990657
vt -1.9385234359120596 2.1526578292899066
vt -2.2426068032837576 2.1526578292899066
vt -2.2426068032837576 -0.15265782928990657
vt -6.41296200705403 -0.15265782928990657
vt -6.41296200705403 2.1526578292899066
vt 1.9385234359120596 2.1526578292899066
vt 1.9385234359120596 -0.15265782928990657
vt -2.0277200558983965 -0.15265782928990657
vt -2.0277200558983965 2.1526578292899066
vt 7.70167263759822 2.1526578292899066
vt 7.70167263759822 -0.15265782928990657
vt 4.327784405168895 -0.15265782928990657
vt 4.327784405168895 2.1526578292899066
vt 4.327784405168895 -0.15265782928990657
vt 4.327784405168895 -2.0176973744796483
vt 2.2426068032837576 -2.0176973744796483
vt 0.9538961727395705 -0.15265782928990657
vt 2.0277200558983965 -0.15265782928990657
vt 1.6089925892896524 -2.0176973744796483
vt -0.8422806963071787 -2.0176973744796483
vt -1.9385234359120596 -0.15265782928990657
vt -2.2426068032837576 -0.15265782928990657
vt -3.03907377462384 -2.0176973744796483
vt -5.61649503571395 -2.0176973744796483
vt -6.41296200705403 -0.15265782928990657
vt 1.9385234359120596 -0.15265782928990657
vt 0.8422806963072877 -2.0176973744796483
vt -1.6089925892896524 -2.0176973744796483
vt -2.0277200558983965 -0.15265782928990657
vt 7.70167263759822 -0.15265782928990657
vt 6.41296200705403 -2.0176973744796483
vt 4.327784405168895 -2.0176973744796483
vt 4.327784405168895 -0.15265782928990657
vt 3.123962795503167 5.327784405168895
vt 1.6089925892896524 3.2426068032837576
vt 0.9314773162936223 5.327784405168895
vt 1.6089925892896524 3.2426068032837576
vt -0.8422806963071787 4.03907377462384
vt 0.9314773162936223 5.327784405168895
vt -0.8422806963071787 4.03907377462384
vt -0.8422806963072877 6.61649503571395
vt 0.9314773162936223 5.327784405168895
vt -0.8422806963072877 6.61649503571395
vt 1.6089925892896524 7.41296200705403
vt 0.9314773162936223 5.327784405168895
vt 1.6089925892896524 7.41296200705403
vt 3.123962795503167 5.327784405168895
vt 0.9314773162936223 5.327784405168895
vt 3.123962795503167 -3.327784405168895
vt 0.9314773162936223 -3.327784405168895
vt 1.6089925892896524 -1.2426068032837576
vt 1.6089925892896524 -1.2426068032837576
vt 0.9314773162936223 -3.327784405168895
vt -0.8422806963071787 -2.03907377462384
vt -0.8422806963071787 -2.03907377462384
vt 0.9314773162936223 -3.327784405168895
vt -0.8422806963072877 -4.61649503571395
vt -0.8422806963072877 -4.61649503571395
vt 0.9314773162936223 -3.327784405168895
vt 1.6089925892896524 -5.41296200705403
vt 1.6089925892896524 -5.41296200705403
vt 0.9314773162936223 -3.327784405168895
vt 3.123962795503167 -3.327784405168895
# 90 uvs
vn 0.4994839534554284 0.7173441777249481 -1.5959455978986625e-16
vn 0.7532367783540057 0.2533659269856663 0
vn 0.23276296529966767 0.2533659269856599 0.716370746366778
vn 0.15434903003532688 0.7173441777249456 0.47503746871862873
vn -0.6093813544765774 0.2533659269856764 0.44274146980080614
vn -0.40409100676299914 0.7173441777249607 0.29358930159783897
vn -0.6093813544765769 0.25336592698567495 -0.4427414698008003
vn -0.40409100676299703 0.7173441777249596 -0.2935893015978249
vn 0.23276296529966814 0.25336592698565863 -0.7163707463667791
vn 0.15434903003532902 0.7173441777249446 -0.4750374687186297
vn 0.7532367783540057 -0.2533659269856664 0
vn 0.23276296529966767 -0.2533659269856601 0.7163707463667779
vn -0.6093813544765774 -0.2533659269856765 0.44274146980080614
vn -0.6093813544765768 -0.25336592698567506 -0.44274146980080026
vn 0.2327629652996681 -0.25336592698565874 -0.716370746366779
vn 0.4994839534554286 -0.7173441777249482 -1.1796119636642288e-16
vn 0.15434903003532702 -0.7173441777249459 0.4750374687186287
vn -0.4040910067629993 -0.7173441777249607 0.293589301597839
vn -0.4040910067629971 -0.7173441777249596 -0.2935893015978249
vn 0.15434903003532907 -0.7173441777249447 -0.4750374687186295
vn 4.346523141407488e-15 0.9279565014785691 3.3417713041217213e-15
vn 4.3659520443384284e-15 -0.9279565014785691 3.4194869158454822e-15
# 22 normals
usemtl b38b6d
f 26/94/26 25/93/25 24/92/24 23/91/23 
f 28/98/28 27/97/27 25/96/25 26/95/26 
f 30/102/30 29/101/29 27/100/27 28/99/28 
f 32/106/32 31/105/31 29/104/29 30/103/30 
f 23/110/23 24/109/24 31/108/31 32/107/32 
f 25/114/25 34/113/34 33/112/33 24/111/24 
f 27/118/27 35/117/35 34/116/34 25/115/25 
f 29/122/29 36/121/36 35/120/35 27/119/27 
f 31/126/31 37/125/37 36/124/36 29/123/29 
f 24/130/24 33/129/33 37/128/37 31/127/31 
f 34/134/34 39/133/39 38/132/38 33/131/33 
f 35/138/35 40/137/40 39/136/39 34/135/34 
f 36/142/36 41/141/41 40/140/40 35/139/35 
f 37/146/37 42/145/42 41/144/41 36/143/36 
f 33/150/33 38/149/38 42/148/42 37/147/37 
f 43/153/43 26/152/26 23/151/23 
f 43/156/43 28/155/28 26/154/26 
f 43/159/43 30/158/30 28/157/28 
f 43/162/43 32/161/32 30/160/30 
f 43/165/43 23/164/23 32/163/32 
f 39/168/39 44/167/44 38/166/38 
f 40/171/40 44/170/44 39/169/39 
f 41/174/41 44/173/44 40/172/40 
f 42/177/42 44/176/44 41/175/41 
f 38/180/38 44/179/44 42/178/42 
# 25 polygons