v -.298589 -.298228 -.097017
v -.30002 -.32955 .023012
v -.314828 -.190062 -.034098
v -.30028 -.19682 .097567
v -.304124 -.090647 .032939
v -.290071 -.081702 -.09425
v -.274744 -.190062 -.157466
v -.240364 .023151 .078099
v -.241516 .057695 -.018525
v -.202657 -.458966 .065847
v -.256248 -.32955 .15773
v -.229195 -.32955 -.194965
v -.234659 -.190062 .212637
v -.265403 -.090647 .152112
v -.20628 .057695 -.126973
v -.226681 -.090647 -.205408
v -.179274 -.081702 .246749
v -.184502 .057695 .156947
v -.163139 .200421 -.053007
v -.14165 -.427702 .194965
v -.184538 -.298228 .253995
v -.125306 -.090647 -.279061
v -.185583 -.19682 -.255434
v -.229195 -.427702 -.07447
v -.114598 -.49101 -.037235
v -.125249 -.458966 -.17239
v -.184502 .165941 .059948
v -.092251 .274188 .029974
v -.129716 -.190062 .288883
v -.070825 -.49101 .097482
v -.064858 -.190062 -.309957
v -.114598 -.32955 -.278225
v -.062653 -.090647 .299418
v -.092251 .057695 .223971
v 0 -.458966 .213086
v -.070825 -.32955 .292448
v 0 -.081702 -.304998
v -.114029 .165941 -.156947
v -.057014 .057695 -.23542
v -.148553 .023151 -.204466
v 0 -.49101 -.120495
v 0 -.503102 0
v 0 -.427702 -.24099
v 0 .165941 .193997
v -.100825 .200421 .138774
v 0 .274188 .096998
v .070825 -.49101 .097482
v 0 -.19682 .315733
v .064858 -.190062 -.309957
v 0 -.298228 -.313955
v .062653 -.090647 .299418
v 0 .023151 .252734
v -.057014 .274188 -.078473
v 0 .200421 -.171534
v .114598 -.49101 -.037235
v .125249 -.458966 -.17239
v .14165 -.427702 .194965
v .070825 -.32955 .292448
v .114598 -.32955 -.278225
v .129716 -.190062 .288883
v .092251 .057695 .223971
v .057014 .057695 -.23542
v .100825 .200421 .138774
v .092251 .274188 .029974
v 0 .305192 0
v .057014 .274188 -.078473
v .184538 -.298228 .253995
v .185583 -.19682 -.255434
v .179274 -.081702 .246749
v .125306 -.090647 -.279061
v .163139 .200421 -.053007
v .114029 .165941 -.156947
v .229195 -.32955 -.194965
v .229195 -.427702 -.07447
v .184502 .057695 .156947
v .184502 .165941 .059948
v .234659 -.190062 .212637
v .148553 .023151 -.204466
v .202657 -.458966 .065847
v .256248 -.32955 .15773
v .274744 -.190062 -.157466
v .265403 -.090647 .152112
v .226681 -.090647 -.205408
v .30002 -.32955 .023012
v .240364 .023151 .078099
v .290071 -.081702 -.09425
v .20628 .057695 -.126973
v .241516 .057695 -.018525
v .30028 -.19682 .097567
v .304124 -.090647 .032939
v .314828 -.190062 -.034098
v .298589 -.298228 -.097017
vt .946793 .949506
vt .957015 .946987
vt .95206 .958714
vt .963202 .958307
vt .957532 .967227
vt .946647 .967854
vt .941158 .958626
vt .053783 .953861
vt .053467 .955239
vt .052346 .953867
vt .051231 .954661
vt .050103 .954455
vt .051004 .953518
vt .050777 .955912
vt .050372 .955811
vt .050898 .955555
vt .052102 .953481
vt .051926 .952455
vt .05281 .952877
vt .051543 .955359
vt .052561 .956922
vt .051077 .956405
vt .053124 .951198
vt .055104 .952687
vt .954926 .946184
vt .952736 .959933
vt .945368 .948132
vt .04984 .953355
vt .050874 .952586
vt .050582 .95707
vt .050443 .956416
vt .050328 .955209
vt .049707 .955237
vt .049975 .955603
vt .054562 .955114
vt .962105 .956362
vt .959517 .968597
vt .051305 .951166
vt .049033 .954565
vt .049944 .957007
vt .049798 .956155
vt .05237 .948485
vt .057459 .9499
vt .964193 .958667
vt .952061 .959003
vt .958334 .946579
vt .050045 .95771
vt .051866 .958694
vt .050886 .958063
vt .051461 .957344
vt .049567 .956017
vt .049099 .955538
vt .963959 .952201
vt .953225 .958022
vt .953321 .946641
vt .061696 .957464
vt .056569 .956346
vt .054854 .960264
vt .053383 .958131
vt .958121 .968879
vt .945761 .968691
vt .050186 .952433
vt .049082 .950609
vt .049419 .957606
vt .049257 .9569
vt .046452 .94591
vt .060337 .942303
vt .051859 .959404
vt .05103 .959393
vt .048785 .956232
vt .048405 .95564
vt .049061 .956907
vt .939943 .958352
vt .946094 .946396
vt .95312 .97045
vt .943263 .966349
vt .04578 .952609
vt .944166 .954639
vt .951963 .958382
vt .943991 .967683
vt .050139 .958501
vt .055389 .966557
vt .052508 .962101
vt .052819 .960089
vt .051491 .960544
vt .048531 .953723
vt .046908 .954966
vt .048736 .958093
vt .04888 .95742
vt .949613 .94433
vt .960107 .947016
vt .049562 .958358
vt .049911 .962071
vt .049759 .960124
vt .048462 .957434
vt .048439 .956859
vt .961215 .960983
vt .952978 .972373
vt .049248 .964876
vt .044745 .956448
vt .03925 .95552
vt .754893 .435678
vt .751173 .423194
vt .759742 .424429
vt .048206 .956312
vt .047159 .956454
vt .048163 .955715
vt .047641 .958184
vt .043623 .959811
vt .040513 .970692
vt .743148 .414754
vt .753267 .411738
vt .047939 .95725
vt .04431 .964747
vt .048446 .959358
vt .046675 .960115
vt .047847 .961388
vt .046809 .962865
vt .046329 .958585
vt .04547 .961261
vt .958758 .968865
vt .947873 .968238
vt .953345 .959725
vt .958612 .950517
vt .94839 .947998
vt .949867 .970566
vt .942716 .960295
vt .963045 .966515
vt .94259 .952021
vt .744678 .428919
vt .047991 .957322
vt .942203 .959319
vt .964247 .959637
vn -.9914 -.1233 -.044
vn -.9933 .0318 .1114
vn -.9501 .0457 -.3087
vn -.8869 .4315 .1648
vn -.8108 -.5228 .2634
vn -.8279 -.1233 -.5471
vn -.869 .0318 .4937
vn -.7958 .3649 -.4832
vn -.7055 .3649 .6076
vn -.8681 .4086 -.2821
vn -.6175 -.4864 .6182
vn -.581 .1519 -.7996
vn -.4525 -.8847 -.1115
vn -.6378 -.5971 -.4864
vn -.8257 .3764 .4201
vn -.7518 .6568 .0583
vn -.5874 .0369 .8085
vn -.3005 -.8847 .3562
vn -.4079 -.0618 -.9109
vn -.3598 .3649 .8587
vn -.2301 -.5971 .7684
vn -.2114 .1706 -.9624
vn -.4211 .3764 -.8252
vn -.0724 -.9924 -.0996
vn -.0338 -.8847 -.4648
vn -.2908 .4775 .8291
vn -.3651 .7837 .5025
vn 0 -.9637 .2671
vn -.2054 -.0618 .9767
vn 0 .0369 -.9993
vn 0 .3795 .9252
vn -.2878 .6568 -.697
vn .1171 -.9924 .038
vn .157 -.9637 -.2161
vn .2301 -.5971 .7684
vn .1362 -.4864 -.8631
vn .201 .0318 .9791
vn .1444 .3764 .9151
vn 0 .4086 -.9127
vn .1768 .6568 .733
vn .216 .93 .2973
vn 0 .93 -.3674
vn .3482 -.1233 .9293
vn .4079 -.0618 -.9109
vn .3598 .3649 .8587
vn .2136 .3649 -.9062
vn .5739 .6568 -.4891
vn .6378 -.5971 -.4864
vn .5365 .4086 .7384
vn .7518 .6568 .0583
vn .5872 .0457 .8082
vn .4211 .3764 -.8252
vn .6597 -.5971 .4563
vn .7403 -.0618 -.6695
vn .7055 .3649 .6076
vn .5438 .3795 -.7485
vn .8019 -.5971 .0186
vn .8257 .3764 .4201
vn .7762 -.1233 .6183
vn .85 .1706 -.4984
vn .8509 .4466 -.2765
vn .9367 -.1728 .3044
vn .94 .1519 .3054
vn .9806 .1706 -.0964
vn .8869 .4315 .1648
vn .9914 -.1233 -.044
vn -.8629 -.4864 -.1372
vn -.9504 .0369 -.3088
vn -.9806 .1706 -.0964
vn -.9149 .3764 .1455
vn -.9924 -.0618 .1065
vn -.7403 -.0618 -.6695
vn -.94 .1519 .3054
vn -.85 .1706 -.4984
vn -.8144 .4315 .388
vn -.8509 .4466 -.2765
vn -.8655 -.0618 .4972
vn -.7367 .1706 .6544
vn -.6547 .3764 -.6555
vn -.4317 -.8847 -.1757
vn -.5011 -.5228 -.6897
vn -.3482 -.1233 .9293
vn -.5438 .3795 -.7485
vn -.6597 -.5971 .4563
vn -.5739 .6568 -.4891
vn -.3947 .1706 .9029
vn -.4129 .0318 -.9102
vn -.2521 .4775 -.8417
vn -.254 -.9637 .0825
vn -.1362 -.4864 -.8631
vn -.5365 .4086 .7384
vn -.6425 .6568 .3947
vn -.3495 .93 -.1135
vn -.2459 -.8847 .3959
vn 0 -.1728 .985
vn -.1173 .4315 .8944
vn -.2136 .3649 -.9062
vn 0 -.9924 .1231
vn .0724 -.9924 -.0996
vn .0338 -.8847 -.4648
vn 0 .1519 .9884
vn 0 .0457 -.999
vn -.1768 .6568 .733
vn .3005 -.8847 .3562
vn .2645 -.1233 -.9565
vn .1173 .4315 .8944
vn .4309 .4315 -.7926
vn .2878 .6568 -.697
vn .4525 -.8847 -.1115
vn .5011 -.5228 -.6897
vn .2908 .4775 .8291
vn .3651 .7837 .5025
vn .5908 .7837 -.192
vn .6175 -.4864 .6182
vn .3947 .1706 .9029
vn .4129 .0318 -.9102
vn .6547 .3764 -.6555
vn .8108 -.5228 .2634
vn .5259 .4466 .7239
vn .8681 .4086 -.2821
vn .5874 .0369 .8085
vn .7788 -.4864 -.3962
vn .6987 .4775 .5328
vn .9149 .3764 .1455
vn .8655 -.0618 .4972
vn .7367 .1706 .6544
vn .7381 .0318 -.6739
vn .7958 .3649 -.4832
vn .9924 -.0618 .1065
vn .9504 .0369 -.3088
vn .9279 .3649 -.0769
vn .8799 .3795 .2859
vn -.7788 -.4864 -.3962
vn -.8799 .3795 .2859
vn -.9279 .3649 -.0769
vn -.9367 -.1728 .3044
vn -.7762 -.1233 .6183
vn -.5872 .0457 .8082
vn -.7381 .0318 -.6739
vn -.6206 .4315 -.6547
vn -.8019 -.5971 .0186
vn -.6987 .4775 .5328
vn -.8784 .4775 -.0204
vn -.4309 .4315 -.7926
vn -.5789 -.1728 -.7968
vn -.5259 .4466 .7239
vn -.7226 .4775 -.4998
vn -.3972 -.4864 .7783
vn -.201 .0318 .9791
vn -.1171 -.9924 .038
vn -.157 -.9637 -.2161
vn -.2655 -.5971 -.7569
vn -.5908 .7837 -.192
vn -.2645 -.1233 -.9565
vn 0 .4466 -.8947
vn 0 .7837 -.6212
vn .2655 -.5971 -.7569
vn 0 -.5228 .8525
vn .2114 .1706 -.9624
vn -.1444 .3764 .9151
vn .2521 .4775 -.8417
vn -.216 .93 .2973
vn .3495 .93 -.1135
vn .2459 -.8847 .3959
vn .2054 -.0618 .9767
vn .254 -.9637 .0825
vn .4317 -.8847 -.1757
vn .6425 .6568 .3947
vn .3972 -.4864 .7783
vn .581 .1519 -.7996
vn .5789 -.1728 -.7968
vn .7226 .4775 -.4998
vn .6206 .4315 -.6547
vn .8629 -.4864 -.1372
vn .8784 .4775 -.0204
vn .8279 -.1233 -.5471
vn .869 .0318 .4937
vn .9501 .0457 -.3087
vn .8144 .4315 .388
vn .9933 .0318 .1114
s 1.
f 1/1/1 2/2/1 3/3/1
f 3/3/2 4/4/2 5/5/2
f 3/3/3 6/6/3 7/7/3
f 8/8/4 9/9/4 5/10/4
f 2/11/5 10/12/5 11/13/5
f 7/14/6 12/15/6 1/16/6
f 4/17/7 13/18/7 14/19/7
f 6/20/8 15/21/8 16/22/8
f 14/19/9 17/23/9 18/24/9
f 9/25/10 19/26/10 15/27/10
f 11/13/11 20/28/11 21/29/11
f 16/22/12 22/30/12 23/31/12
f 24/32/13 25/33/13 10/12/13
f 12/15/14 26/34/14 24/32/14
f 18/24/15 27/35/15 8/8/15
f 27/36/16 28/37/16 19/26/16
f 21/29/17 29/38/17 13/18/17
f 10/12/18 30/39/18 20/28/18
f 23/31/19 31/40/19 32/41/19
f 17/23/20 33/42/20 34/43/20
f 20/44/21 35/45/21 36/46/21
f 22/30/22 37/47/22 31/40/22
f 38/48/23 39/49/23 40/50/23
f 25/33/24 41/51/24 42/52/24
f 26/53/25 43/54/25 41/55/25
f 34/43/26 44/56/26 45/57/26
f 45/57/27 46/58/27 28/59/27
f 30/60/28 47/61/28 35/45/28
f 36/62/29 48/63/29 29/38/29
f 31/40/30 49/64/30 50/65/30
f 33/42/31 51/66/31 52/67/31
f 53/68/32 54/69/32 38/48/32
f 42/52/33 55/70/33 47/71/33
f 41/51/34 56/72/34 55/70/34
f 35/45/35 57/73/35 58/74/35
f 50/75/36 59/76/36 43/54/36
f 48/63/37 60/77/37 51/66/37
f 52/78/38 61/79/38 44/80/38
f 54/69/39 62/81/39 39/49/39
f 44/56/40 63/82/40 46/58/40
f 46/58/41 64/83/41 65/84/41
f 65/84/42 66/85/42 53/68/42
f 58/86/43 67/87/43 60/77/43
f 49/64/44 68/88/44 59/89/44
f 51/90/45 69/91/45 61/79/45
f 62/81/46 70/92/46 37/47/46
f 66/85/47 71/93/47 72/94/47
f 56/72/48 73/95/48 74/96/48
f 61/79/49 75/97/49 63/98/49
f 64/83/50 76/99/50 71/93/50
f 60/77/51 77/100/51 69/101/51
f 72/102/52 78/103/52 62/104/52
f 79/105/53 80/106/53 57/107/53
f 68/88/54 81/108/54 73/95/54
f 69/101/55 82/109/55 75/110/55
f 78/103/56 83/111/56 70/112/56
f 74/96/57 84/113/57 79/105/57
f 75/110/58 85/114/58 76/99/58
f 80/106/59 77/100/59 67/87/59
f 83/115/60 86/116/60 81/108/60
f 87/117/61 88/118/61 86/116/61
f 84/113/62 89/119/62 80/106/62
f 89/119/63 90/120/63 82/109/63
f 86/121/64 90/122/64 91/123/64
f 88/118/65 85/114/65 90/120/65
f 92/124/66 91/123/66 84/125/66
f 1/16/67 24/32/67 2/11/67
f 3/3/68 7/7/68 1/1/68
f 5/5/69 6/6/69 3/3/69
f 8/8/70 27/35/70 9/9/70
f 2/2/71 4/4/71 3/3/71
f 7/14/72 23/31/72 12/15/72
f 4/17/73 14/19/73 5/10/73
f 6/20/74 16/22/74 7/14/74
f 14/19/75 18/24/75 8/8/75
f 9/9/76 15/21/76 6/20/76
f 11/13/77 13/18/77 4/17/77
f 13/18/78 17/23/78 14/19/78
f 15/21/79 38/48/79 40/50/79
f 24/32/80 26/34/80 25/33/80
f 12/15/81 32/41/81 26/34/81
f 21/29/82 36/62/82 29/38/82
f 40/50/83 22/30/83 16/22/83
f 10/12/84 20/28/84 11/13/84
f 19/26/85 53/126/85 38/127/85
f 29/38/86 33/42/86 17/23/86
f 22/30/87 31/40/87 23/31/87
f 38/48/88 54/69/88 39/49/88
f 25/33/89 30/39/89 10/12/89
f 32/128/90 50/75/90 43/54/90
f 34/43/91 45/57/91 18/24/91
f 45/57/92 28/59/92 27/35/92
f 28/59/93 65/84/93 53/68/93
f 30/60/94 35/45/94 20/44/94
f 36/62/95 58/86/95 48/63/95
f 33/42/96 52/67/96 34/43/96
f 39/49/97 37/47/97 22/30/97
f 42/52/98 47/71/98 30/39/98
f 41/51/99 55/70/99 42/52/99
f 43/54/100 56/129/100 41/55/100
f 48/63/101 51/66/101 33/42/101
f 37/47/102 49/64/102 31/40/102
f 44/56/103 46/58/103 45/57/103
f 47/71/104 79/105/104 57/107/104
f 49/64/105 59/89/105 50/65/105
f 51/90/106 61/79/106 52/78/106
f 62/104/107 78/103/107 70/112/107
f 66/85/108 72/94/108 54/69/108
f 55/70/109 74/96/109 79/105/109
f 59/89/110 73/95/110 56/72/110
f 61/79/111 63/98/111 44/80/111
f 63/82/112 64/83/112 46/58/112
f 64/83/113 71/93/113 66/85/113
f 57/107/114 80/106/114 67/87/114
f 60/77/115 69/101/115 51/66/115
f 70/92/116 68/88/116 49/64/116
f 72/102/117 87/130/117 78/103/117
f 79/105/118 84/113/118 80/106/118
f 69/91/119 75/97/119 61/79/119
f 71/93/120 88/118/120 87/117/120
f 67/87/121 77/100/121 60/77/121
f 73/95/122 92/131/122 74/96/122
f 75/110/123 76/99/123 63/82/123
f 76/99/124 85/114/124 88/118/124
f 80/106/125 89/119/125 77/100/125
f 77/100/126 82/109/126 69/101/126
f 83/115/127 81/108/127 68/88/127
f 87/117/128 86/116/128 83/115/128
f 84/125/129 91/123/129 89/132/129
f 81/133/130 91/123/130 92/124/130
f 88/118/131 90/120/131 86/116/131
f 90/120/132 85/114/132 82/109/132
f 1/16/133 12/15/133 24/32/133
f 5/10/134 14/19/134 8/8/134
f 5/10/135 9/9/135 6/20/135
f 2/11/136 11/13/136 4/17/136
f 11/13/137 21/29/137 13/18/137
f 13/18/138 29/38/138 17/23/138
f 16/22/139 23/31/139 7/14/139
f 15/21/140 40/50/140 16/22/140
f 24/32/141 10/12/141 2/11/141
f 18/24/142 45/57/142 27/35/142
f 27/36/143 19/26/143 9/25/143
f 40/50/144 39/49/144 22/30/144
f 23/31/145 32/41/145 12/15/145
f 17/23/146 34/43/146 18/24/146
f 19/26/147 38/127/147 15/27/147
f 20/28/148 36/62/148 21/29/148
f 29/38/149 48/63/149 33/42/149
f 25/33/150 42/52/150 30/39/150
f 26/34/151 41/51/151 25/33/151
f 32/128/152 43/54/152 26/53/152
f 28/37/153 53/126/153 19/26/153
f 31/40/154 50/65/154 32/41/154
f 39/49/155 62/81/155 37/47/155
f 53/68/156 66/85/156 54/69/156
f 43/54/157 59/76/157 56/129/157
f 35/45/158 58/74/158 36/46/158
f 37/47/159 70/92/159 49/64/159
f 52/67/160 44/56/160 34/43/160
f 54/69/161 72/94/161 62/81/161
f 46/58/162 65/84/162 28/59/162
f 65/84/163 64/83/163 66/85/163
f 47/61/164 57/73/164 35/45/164
f 58/86/165 60/77/165 48/63/165
f 55/70/166 79/105/166 47/71/166
f 56/72/167 74/96/167 55/70/167
f 63/82/168 76/99/168 64/83/168
f 57/107/169 67/87/169 58/86/169
f 70/92/170 83/115/170 68/88/170
f 68/88/171 73/95/171 59/89/171
f 71/93/172 87/117/172 72/94/172
f 78/103/173 87/130/173 83/111/173
f 74/96/174 92/131/174 84/113/174
f 76/99/175 88/118/175 71/93/175
f 81/108/176 92/131/176 73/95/176
f 89/119/177 82/109/177 77/100/177
f 86/121/178 91/123/178 81/133/178
f 82/109/179 85/114/179 75/110/179
f 91/123/180 90/122/180 89/132/180
