v .459954 -.114258 -.467455
v .459954 -.072669 -.467455
v .459954 -.072669 .344159
v .459954 -.114258 .344159
v .459954 .048223 -.467455
v -.469318 .048223 -.467455
v -.469318 .048223 .344159
v .459954 .048223 .344159
v -.469318 -.114258 .344159
v -.469318 -.072669 .344159
v -.469318 -.072669 -.467455
v -.469318 -.114258 -.467455
v .459954 .005872 .344159
v -.469318 .005872 .344159
v -.469318 .005872 -.467455
v .459954 .005872 -.467455
v .457418 -.114258 -.455289
v .457418 -.114258 -.408408
v .457418 -.469893 -.408408
v .457418 -.469893 -.455289
v .255418 -.469893 -.253289
v .255418 -.114258 -.253289
v .255418 -.114258 -.298735
v .255418 -.469893 -.298735
v .255418 -.496803 -.253289
v .301582 -.496803 -.253289
v .301582 -.469893 -.253289
v .255418 -.469893 -.455289
v .255418 -.496803 -.455289
v .255418 -.496803 -.408408
v .255418 -.469893 -.408408
v .255418 -.114258 -.455289
v .255418 -.114258 -.408408
v .322752 -.114258 -.387956
v .301582 -.114258 -.455289
v .41592 -.114258 -.253289
v .390085 -.114258 -.320623
v .322752 -.114258 -.320623
v .301582 -.114258 -.253289
v .41592 -.469893 -.455289
v .41592 -.496803 -.455289
v .301582 -.496803 -.455289
v .301582 -.469893 -.455289
v .41592 -.469893 -.253289
v .41592 -.496803 -.253289
v .457418 -.496803 -.253289
v .457418 -.469893 -.253289
v .457418 -.114258 -.298735
v .390085 -.114258 -.387956
v .457418 -.469893 -.298735
v .457418 -.114258 -.253289
v .457418 -.496803 -.298735
v .457418 -.496803 -.408408
v -.261281 -.469893 -.455289
v -.30278 -.469893 -.455289
v -.30278 -.114258 -.455289
v -.261281 -.114258 -.455289
v -.261281 -.114258 -.253289
v -.30278 -.114258 -.253289
v -.30278 -.469893 -.253289
v -.261281 -.469893 -.253289
v -.463281 -.469893 -.253289
v -.463281 -.114258 -.253289
v -.463281 -.114258 -.298735
v -.463281 -.469893 -.298735
v -.463281 -.114258 -.455289
v -.463281 -.114258 -.408408
v -.395948 -.114258 -.387956
v -.417117 -.114258 -.455289
v -.328614 -.114258 -.320623
v -.395948 -.114258 -.320623
v -.417117 -.114258 -.253289
v -.261281 -.114258 -.298735
v -.261281 -.114258 -.408408
v -.328614 -.114258 -.387956
v -.261281 -.496803 -.253289
v -.30278 -.496803 -.253289
v -.417117 -.496803 -.253289
v -.463281 -.496803 -.253289
v -.463281 -.496803 -.298735
v -.463281 -.496803 -.408408
v -.463281 -.496803 -.455289
v -.417117 -.496803 -.455289
v -.30278 -.496803 -.455289
v -.261281 -.496803 -.455289
v -.261281 -.496803 -.408408
v -.261281 -.496803 -.298735
v -.261281 -.469893 .336238
v -.261281 -.496803 .336238
v -.261281 -.496803 .290792
v -.261281 -.469893 .290792
v -.261281 -.114258 .336238
v -.30278 -.114258 .336238
v -.30278 -.469893 .336238
v -.463281 -.469893 .336238
v -.463281 -.114258 .336238
v -.463281 -.114258 .290792
v -.463281 -.469893 .290792
v -.463281 -.469893 .134238
v -.463281 -.469893 .181119
v -.463281 -.114258 .181119
v -.463281 -.114258 .134238
v -.30278 -.114258 .134238
v -.30278 -.469893 .134238
v -.417117 -.469893 .134238
v -.417117 -.114258 .134238
v -.328614 -.114258 .201571
v -.261281 -.114258 .181119
v -.261281 -.114258 .134238
v -.328614 -.114258 .268905
v -.395948 -.114258 .268905
v -.417117 -.114258 .336238
v -.417117 -.469893 .336238
v -.417117 -.496803 .336238
v -.30278 -.496803 .336238
v -.417117 -.496803 .134238
v -.463281 -.496803 .134238
v -.261281 -.114258 .290792
v -.261281 -.469893 .181119
v -.261281 -.496803 .181119
v -.261281 -.496803 .134238
v -.261281 -.469893 .134238
v -.463281 -.496803 .181119
v -.463281 -.496803 .290792
v -.395948 -.114258 .201571
v .458854 -.469893 .336238
v .458854 -.496803 .336238
v .458854 -.496803 .290792
v .458854 -.469893 .290792
v .458854 -.469893 .134238
v .417355 -.469893 .134238
v .417355 -.114258 .134238
v .458854 -.114258 .134238
v .256854 -.469893 .336238
v .303017 -.469893 .336238
v .303017 -.114258 .336238
v .256854 -.114258 .336238
v .256854 -.469893 .134238
v .256854 -.496803 .134238
v .256854 -.496803 .181119
v .256854 -.469893 .181119
v .256854 -.114258 .134238
v .303017 -.114258 .134238
v .303017 -.469893 .134238
v .417355 -.496803 .134238
v .303017 -.496803 .134238
v .303017 -.496803 .336238
v .417355 -.496803 .336238
v .417355 -.469893 .336238
v .324187 -.114258 .201571
v .39152 -.114258 .201571
v .256854 -.469893 .290792
v .256854 -.496803 .290792
v .256854 -.496803 .336238
v .458854 -.114258 .290792
v .39152 -.114258 .268905
v .417355 -.114258 .336238
v .458854 -.114258 .336238
v .458854 -.469893 .181119
v .458854 -.114258 .181119
v .458854 -.496803 .181119
v .458854 -.496803 .134238
v .256854 -.114258 .181119
v .256854 -.114258 .290792
v .324187 -.114258 .268905
v .459954 .048223 .34432
v -.469318 .048223 .34432
v -.469318 .048223 .315602
v .459954 .048223 .315602
v .459954 .048223 .224679
v -.469318 .048223 .224679
v -.469318 .69882 .224679
v .459954 .69882 .224679
v .459954 .69882 .315602
v -.469318 .69882 .315602
v -.469318 .69882 .34432
v .459954 .69882 .34432
v .459954 .048223 .254853
v .459954 .69882 .254853
v -.469318 .69882 .254853
v -.469318 .048223 .254853
v .41592 -.114258 -.455289
v .457418 -.496803 -.455289
v .255418 -.496803 -.298735
v -.417117 -.469893 -.253289
v -.463281 -.469893 -.455289
v -.463281 -.469893 -.408408
v -.417117 -.469893 -.455289
v -.261281 -.469893 -.298735
v -.261281 -.469893 -.408408
v -.463281 -.496803 .336238
v -.30278 -.496803 .134238
vt .95828 .953054
vt .95828 .955831
vt .904089 .955831
vt .904089 .953054
vt .032876 .946026
vt .056698 .946026
vt .056698 .966831
vt .032876 .966831
vt .961165 .955863
vt .961165 .959012
vt .899717 .959012
vt .899717 .955863
vt .046897 .951419
vt .04941 .973471
vt .049192 .973653
vt .045143 .951611
vt .045143 .934421
vt .049192 .956464
vt .047438 .956655
vt .044925 .934603
vt .919575 .977671
vt .912397 .977671
vt .912397 .923221
vt .919575 .923221
vt .920766 .922643
vt .920766 .977093
vt .913808 .977093
vt .913808 .922643
vt .923227 .958765
vt .924407 .957642
vt .927391 .958232
vt .927047 .960353
vt .923254 .941359
vt .924532 .942707
vt .924094 .945948
vt .921898 .945673
vt .48989 .948963
vt .489961 .950339
vt .488014 .951033
vt .488535 .949034
vt .485469 .95508
vt .486139 .953088
vt .488103 .953003
vt .488804 .954943
vt .937153 .940767
vt .936803 .942869
vt .927722 .942462
vt .927578 .940261
vt .936679 .960841
vt .936514 .958627
vt .939358 .958386
vt .940692 .959728
vt .484213 .953809
vt .484057 .950633
vt .486048 .951128
vt .947859 .922643
vt .947859 .977093
vt .940901 .977093
vt .940901 .922643
vt .941994 .955493
vt .939786 .955226
vt .939861 .946478
vt .941994 .946245
vt .939322 .922065
vt .945676 .922065
vt .945676 .976515
vt .939322 .976515
vt .947788 .97796
vt .941434 .97796
vt .941434 .92351
vt .947788 .92351
vt .934312 .922643
vt .934312 .977093
vt .927354 .977093
vt .927354 .922643
vt .490866 .949008
vt .490938 .950384
vt .488991 .951078
vt .489512 .949079
vt .486446 .955125
vt .487116 .953133
vt .48908 .953048
vt .489781 .954988
vt .48519 .953854
vt .485034 .950678
vt .487025 .951173
vt .938929 .957808
vt .936085 .958049
vt .926963 .957654
vt .923978 .957064
vt .923567 .954111
vt .923666 .94537
vt .924104 .942129
vt .927293 .941885
vt .936374 .942291
vt .938986 .942814
vt .939433 .9459
vt .939358 .954648
vt .942007 .959295
vt .940672 .957952
vt .941101 .954793
vt .943309 .955059
vt .941524 .976515
vt .93517 .976515
vt .93517 .922065
vt .941524 .922065
vt .936813 .922456
vt .936813 .977155
vt .929823 .977155
vt .929823 .922456
vt .930434 .922643
vt .937612 .922643
vt .937612 .977093
vt .930434 .977093
vt .484425 .94885
vt .483906 .938476
vt .487241 .938308
vt .487763 .948683
vt .485276 .950777
vt .483285 .950281
vt .483213 .948912
vt .484697 .954729
vt .485367 .952737
vt .487331 .952652
vt .488032 .954591
vt .928362 .95992
vt .928706 .957799
vt .937828 .958193
vt .937994 .960407
vt .928892 .939828
vt .929036 .942029
vt .925847 .942274
vt .924569 .940926
vt .483441 .953458
vt .473159 .953967
vt .473001 .950796
vt .943309 .945812
vt .941176 .946045
vt .940729 .942959
vt .941946 .941869
vt .923212 .94524
vt .925409 .945515
vt .92531 .954255
vt .92318 .954487
vt .487242 .950682
vt .489189 .949988
vt .489327 .953212
vt .94128 .959006
vt .939945 .957663
vt .940374 .954504
vt .942581 .95477
vt .930905 .923178
vt .937288 .923178
vt .937288 .977878
vt .930905 .977878
vt .927688 .922966
vt .933798 .922966
vt .933798 .970033
vt .927688 .970033
vt .923842 .940637
vt .92512 .941985
vt .924682 .945226
vt .922485 .944951
vt .938882 .977589
vt .931782 .977589
vt .931782 .92289
vt .938882 .92289
vt .937741 .940045
vt .93739 .942147
vt .928309 .94174
vt .928165 .939539
vt .927635 .959631
vt .927979 .95751
vt .937101 .957904
vt .937267 .960118
vt .488919 .949453
vt .488398 .951452
vt .486432 .951548
vt .485581 .94962
vt .922453 .954198
vt .924583 .953966
vt .924994 .95692
vt .923814 .958043
vt .484597 .954228
vt .486523 .953507
vt .485853 .9555
vt .484649 .955547
vt .474314 .954738
vt .474156 .951567
vt .484441 .951052
vt .942581 .945523
vt .940448 .945756
vt .940002 .94267
vt .941219 .94158
vt .490345 .950758
vt .490482 .953982
vt .488486 .953423
vt .032325 .949678
vt .056258 .945019
vt .056402 .945759
vt .032469 .950418
vt .032419 .951906
vt .057113 .947671
vt .060314 .965722
vt .034532 .970295
vt .894309 .956346
vt .964666 .956346
vt .964666 .95852
vt .894309 .95852
vt .039897 .945133
vt .032358 .951083
vt .039382 .944065
vt .060314 .936999
vt .056938 .946843
vt .060225 .937682
vt .893154 .946404
vt .96351 .946404
vt .96351 .949552
vt .893154 .949552
vt .894309 .958787
vt .894309 .95558
vt .964666 .95558
vt .964666 .958787
vt .894309 .948444
vt .894309 .945238
vt .964666 .945238
vt .964666 .948444
vt .964666 .946248
vt .894309 .946248
vt .894309 .943099
vt .964666 .943099
vt .932786 .967824
vt .928704 .967824
vt .928704 .932841
vt .932786 .932841
vt .928919 .923221
vt .936097 .923221
vt .936097 .977671
vt .928919 .977671
vt .49015 .954888
vt .490099 .953563
vt .485197 .949201
vt .484678 .938827
vt .488013 .93866
vt .483985 .949263
vt .473931 .954318
vt .473773 .951147
vt .939415 .943392
vt .940632 .942302
vt .923995 .954689
vt .921865 .954921
vt .940203 .941724
vt .936725 .94019
vt .922798 .958188
vt .926619 .959775
vt .91646 .922643
vt .923637 .922643
vt .923637 .977093
vt .91646 .977093
vt .491127 .954933
vt .491076 .953608
vt .486174 .949246
vt .485655 .938872
vt .48899 .938705
vt .484962 .949308
vt .936251 .960263
vt .940264 .959151
vt .927149 .939683
vt .922826 .940782
vt .490211 .965368
vt .486873 .965506
vt .485242 .955172
vt .941566 .954915
vt .941566 .945667
vt .921469 .945095
vt .921437 .954343
vt .945375 .977093
vt .938197 .977093
vt .938197 .922643
vt .945375 .922643
vt .489378 .954537
vt .92271 .97796
vt .915642 .97796
vt .915642 .92351
vt .92271 .92351
vt .488462 .964972
vt .485124 .96511
vt .483493 .954776
vt .499661 .949546
vt .499797 .952775
vt .925721 .957209
vt .938117 .942436
vt .932916 .976515
vt .925738 .976515
vt .925738 .922065
vt .932916 .922065
vt .944408 .922643
vt .951586 .922643
vt .951586 .977093
vt .944408 .977093
vt .490534 .955307
vt .489188 .955362
vt .485062 .939246
vt .488397 .939079
vt .489618 .965743
vt .48628 .96588
vt .9341 .922745
vt .9341 .977444
vt .92711 .977444
vt .92711 .922745
vt .934075 .985558
vt .931107 .985558
vt .931107 .921562
vt .934075 .921562
vt .935193 .923006
vt .935193 .987002
vt .932368 .987002
vt .932368 .923006
vt .928401 .921273
vt .931369 .921273
vt .931369 .985269
vt .928401 .985269
vt .931688 .921851
vt .931688 .985847
vt .928864 .985847
vt .928864 .921851
vt .05487 .965709
vt .034372 .965709
vt .034372 .947806
vt .05487 .947806
vt .905807 .953339
vt .905807 .950545
vt .959352 .950545
vt .959352 .953339
vt .899717 .94653
vt .899717 .943324
vt .961165 .943324
vt .961165 .94653
vt .929064 .92351
vt .935418 .92351
vt .935418 .97796
vt .929064 .97796
vt .926252 .926164
vt .931123 .926164
vt .931123 .96369
vt .926252 .96369
vt .930922 .978625
vt .923854 .978625
vt .923854 .924175
vt .930922 .924175
vt .484265 .955127
vt .933549 .977671
vt .926371 .977671
vt .926371 .923221
vt .933549 .923221
vt .926434 .92833
vt .931305 .92833
vt .931305 .965857
vt .926434 .965857
vt .944682 .978625
vt .937614 .978625
vt .937614 .924175
vt .944682 .924175
vt .916159 .923221
vt .922513 .923221
vt .922513 .977671
vt .916159 .977671
vt .926183 .928042
vt .931054 .928042
vt .931054 .965568
vt .926183 .965568
vt .489118 .948612
vt .938468 .940334
vt .924541 .958332
vt .932253 .923323
vt .932253 .978022
vt .925263 .978022
vt .925263 .923323
vt .940625 .977011
vt .934242 .977011
vt .934242 .922312
vt .940625 .922312
vt .937359 .922601
vt .937359 .9773
vt .930369 .9773
vt .930369 .922601
vt .490273 .949382
vt .058938 .966034
vt .031792 .966034
vt .031792 .947029
vt .058938 .947029
vt .96351 .957531
vt .96351 .959816
vt .893154 .959816
vt .893154 .957531
vt .489234 .965323
vt .485896 .965461
vt .500433 .949897
vt .500569 .953126
vt .474908 .954364
vt .474749 .951192
vt .50141 .949942
vt .501546 .953171
vt .484369 .949682
vt .500817 .950316
vt .500952 .953545
vt .931505 .922643
vt .931505 .977093
vt .924547 .977093
vt .924547 .922643
vn 1. 0 0
vn 0 1. 0
vn -1. 0 0
vn 0 0 1.
vn 0 0 -1.
vn 0 -1. 0
s 1.
f 1/1/1 2/2/1 3/3/1 4/4/1
f 5/5/2 6/6/2 7/7/2 8/8/2
f 9/9/3 10/10/3 11/11/3 12/12/3
f 10/13/4 3/14/4 13/15/4 14/16/4
f 15/17/5 16/18/5 2/19/5 11/20/5
f 17/21/1 18/22/1 19/23/1 20/24/1
f 21/25/3 22/26/3 23/27/3 24/28/3
f 21/29/4 25/30/4 26/31/4 27/32/4
f 28/33/3 29/34/3 30/35/3 31/36/3
f 32/37/2 33/38/2 34/39/2 35/40/2
f 36/41/2 37/42/2 38/43/2 39/44/2
f 40/45/5 41/46/5 42/47/5 43/48/5
f 44/49/4 45/50/4 46/51/4 47/52/4
f 37/42/2 48/53/2 18/54/2 49/55/2
f 50/56/1 48/57/1 51/58/1 47/59/1
f 50/60/1 52/61/1 53/62/1 19/63/1
f 54/64/5 55/65/5 56/66/5 57/67/5
f 58/68/4 59/69/4 60/70/4 61/71/4
f 62/72/3 63/73/3 64/74/3 65/75/3
f 66/76/2 67/77/2 68/78/2 69/79/2
f 59/80/2 70/81/2 71/82/2 72/83/2
f 70/81/2 73/84/2 74/85/2 75/86/2
f 76/87/6 77/88/6 78/89/6 79/90/6 80/91/6 81/92/6 82/93/6 83/94/6 84/95/6 85/96/6 86/97/6 87/98/6
f 88/99/1 89/100/1 90/101/1 91/102/1
f 92/103/4 93/104/4 94/105/4 88/106/4
f 95/107/3 96/108/3 97/109/3 98/110/3
f 99/111/3 100/112/3 101/113/3 102/114/3
f 103/115/5 104/116/5 105/117/5 106/118/5
f 103/115/2 107/119/2 108/120/2 109/121/2
f 93/122/2 110/123/2 111/124/2 112/125/2
f 113/126/4 114/127/4 115/128/4 94/129/4
f 105/130/5 116/131/5 117/132/5 99/133/5
f 118/134/1 91/135/1 119/136/1 108/120/1
f 119/137/1 120/138/1 121/139/1 122/140/1
f 100/141/3 123/142/3 124/143/3 98/144/3
f 125/145/2 101/146/2 97/147/2 111/124/2
f 126/148/1 127/149/1 128/150/1 129/151/1
f 130/152/5 131/153/5 132/154/5 133/155/5
f 134/156/4 135/157/4 136/158/4 137/159/4
f 138/160/3 139/161/3 140/162/3 141/163/3
f 142/164/5 143/165/5 144/166/5 138/167/5
f 131/168/5 145/169/5 146/170/5 144/171/5
f 135/172/4 147/173/4 148/174/4 149/175/4
f 143/176/2 150/177/2 151/178/2 132/179/2
f 152/180/3 153/181/3 154/182/3 134/183/3
f 155/184/2 156/185/2 157/186/2 158/187/2
f 155/184/1 129/188/1 159/189/1 160/190/1
f 159/191/1 161/192/1 162/193/1 130/194/1
f 150/177/2 163/195/2 164/196/2 165/197/2
f 166/198/6 167/199/6 168/200/6 169/201/6
f 170/202/5 171/203/5 172/204/5 173/205/5
f 174/206/2 175/207/2 176/208/2 177/209/2
f 174/210/1 169/201/1 178/211/1 179/212/1
f 180/213/3 181/214/3 168/200/3 175/215/3
f 1/216/5 12/217/5 11/218/5 2/219/5
f 5/220/5 16/221/5 15/222/5 6/223/5
f 7/224/4 14/225/4 13/226/4 8/227/4
f 11/20/3 10/13/3 14/16/3 15/17/3
f 3/228/4 10/229/4 9/230/4 4/231/4
f 16/18/1 13/15/1 3/14/1 2/19/1
f 47/52/1 46/51/1 52/61/1 50/60/1
f 51/232/4 36/233/4 44/234/4 47/235/4
f 28/236/3 31/237/3 33/238/3 32/239/3
f 22/240/2 39/44/2 38/43/2 23/241/2
f 182/242/5 40/243/5 43/244/5 35/40/5
f 182/242/2 49/55/2 18/54/2 17/245/2
f 27/32/4 26/31/4 45/50/4 44/49/4
f 43/48/5 42/47/5 29/34/5 28/33/5
f 38/43/2 37/42/2 49/55/2 34/39/2
f 48/53/1 50/246/1 19/247/1 18/54/1
f 19/63/1 53/62/1 183/248/1 20/249/1
f 31/36/3 30/35/3 184/250/3 24/251/3
f 54/252/5 85/96/5 84/95/5 55/253/5
f 62/254/4 79/90/4 78/89/4 185/255/4
f 186/256/3 187/257/3 67/258/3 66/259/3
f 63/260/2 72/83/2 71/82/2 64/261/2
f 56/262/5 55/263/5 188/264/5 69/79/5
f 56/262/2 75/86/2 74/85/2 57/265/2
f 60/266/4 77/88/4 76/87/4 61/267/4
f 188/268/5 83/94/5 82/93/5 186/269/5
f 72/83/4 185/270/4 60/271/4 59/80/4
f 71/82/2 70/81/2 75/86/2 68/78/2
f 73/84/2 70/81/2 59/80/2 58/272/2
f 189/273/1 87/98/1 86/97/1 190/274/1
f 187/275/3 81/92/3 80/91/3 65/276/3
f 109/277/1 108/278/1 119/279/1 122/280/1
f 96/281/2 112/125/2 111/124/2 97/147/2
f 102/282/5 106/283/5 105/284/5 99/285/5
f 112/125/4 113/286/4 94/287/4 93/122/4
f 111/124/2 110/123/2 107/119/2 125/145/2
f 118/134/2 110/123/2 93/122/2 92/288/2
f 101/146/3 100/289/3 98/290/3 97/147/3
f 89/100/6 115/128/6 114/127/6 191/291/6 124/143/6 123/142/6 117/132/6 116/131/6 192/292/6 121/139/6 120/138/6 90/101/6
f 130/194/5 162/193/5 145/169/5 131/168/5
f 133/293/1 160/294/1 159/295/1 130/296/1
f 134/183/4 154/182/4 147/173/4 135/172/4
f 138/297/3 141/298/3 163/299/3 142/300/3
f 137/301/2 136/302/2 165/197/2 164/196/2
f 132/179/5 131/303/5 144/304/5 143/176/5
f 149/175/4 148/174/4 127/149/4 126/148/4
f 144/171/5 146/170/5 139/161/5 138/160/5
f 136/302/4 135/305/4 149/306/4 157/186/4
f 165/197/2 156/185/2 151/178/2 150/177/2
f 129/307/1 155/308/1 158/309/1 126/310/1
f 129/151/1 128/150/1 161/192/1 159/191/1
f 141/163/3 140/162/3 153/181/3 152/180/3
f 173/311/1 179/312/1 178/313/1 170/314/1
f 167/315/3 176/316/3 175/317/3 168/318/3
f 171/319/3 181/320/3 180/321/3 172/322/3
f 175/215/2 174/210/2 179/212/2 180/213/2
f 169/323/1 174/324/1 177/325/1 166/326/1
f 181/214/6 178/211/6 169/201/6 168/200/6
f 4/327/6 9/328/6 12/329/6 1/330/6
f 8/331/1 13/332/1 16/333/1 5/334/1
f 6/335/3 15/336/3 14/337/3 7/338/3
f 20/339/5 40/340/5 182/341/5 17/342/5
f 21/343/4 27/344/4 39/345/4 22/346/4
f 32/347/5 35/348/5 43/349/5 28/350/5
f 35/40/2 34/39/2 49/55/2 182/242/2
f 48/53/2 37/42/2 36/41/2 51/351/2
f 34/39/2 33/38/2 23/241/2 38/43/2
f 46/51/6 45/50/6 26/31/6 25/30/6 184/250/6 30/35/6 29/34/6 42/47/6 41/46/6 183/248/6 53/62/6 52/61/6
f 61/267/1 76/87/1 87/98/1 189/273/1
f 57/352/1 74/353/1 190/354/1 54/355/1
f 62/356/4 185/357/4 72/358/4 63/359/4
f 186/269/3 82/93/3 81/92/3 187/275/3
f 66/360/5 69/361/5 188/362/5 186/363/5
f 55/253/5 84/95/5 83/94/5 188/268/5
f 185/255/4 78/89/4 77/88/4 60/266/4
f 69/79/2 68/78/2 75/86/2 56/262/2
f 65/276/3 80/91/3 79/90/3 62/254/3
f 68/78/2 67/77/2 64/261/2 71/82/2
f 122/364/5 104/365/5 103/366/5 109/367/5
f 95/368/4 113/369/4 112/370/4 96/371/4
f 99/133/3 117/132/3 123/142/3 100/141/3
f 102/372/2 101/146/2 125/145/2 106/118/2
f 104/373/5 192/292/5 116/131/5 105/130/5
f 94/129/4 115/128/4 89/100/4 88/99/4
f 110/123/2 118/134/2 108/120/2 107/119/2
f 98/144/3 124/143/3 191/291/3 95/374/3
f 91/375/1 118/376/1 92/377/1 88/378/1
f 91/102/1 90/101/1 120/138/1 119/137/1
f 158/379/4 157/380/4 149/381/4 126/382/4
f 134/383/3 137/384/3 164/385/3 152/386/3
f 142/387/2 163/195/2 150/177/2 143/176/2
f 157/186/2 156/185/2 165/197/2 136/302/2
f 156/185/2 155/184/2 160/190/2 151/178/2
f 127/149/6 148/174/6 147/173/6 154/182/6 153/181/6 140/162/6 139/161/6 146/170/6 145/169/6 162/193/6 161/192/6 128/150/6
f 170/202/6 178/211/6 181/214/6 171/203/6
f 177/388/4 176/389/4 167/390/4 166/391/4
f 172/392/2 180/393/2 179/394/2 173/395/2
f 20/249/5 183/248/5 41/46/5 40/45/5
f 39/44/4 27/396/4 44/397/4 36/41/4
f 24/251/3 184/250/3 25/30/3 21/29/3
f 33/38/3 31/398/3 24/399/3 23/241/3
f 73/84/1 189/400/1 190/401/1 74/85/1
f 190/274/1 86/97/1 85/96/1 54/252/1
f 67/77/3 187/402/3 65/403/3 64/261/3
f 122/140/5 121/139/5 192/292/5 104/373/5
f 95/374/4 191/291/4 114/127/4 113/126/4
f 106/118/2 125/145/2 107/119/2 103/115/2
f 132/179/2 151/178/2 160/190/2 133/404/2
f 163/195/3 141/405/3 152/406/3 164/196/3
f 189/407/1 73/408/1 58/409/1 61/410/1
